{"title":"Bedroom (2012) - Bengali - Uncut - Adult - Orginal DVD RIP","uid":7449228,"size":733630779,"categoryP":"video","categoryS":"movies","magnet":"?xt=urn:btih:0cc14e222c9b6fc552ad16f4be041d72135663ef&amp;dn=Bedroom+%282012%29+-+Bengali+-+Uncut+-+Adult+-+Orginal+DVD+RIP&amp;tr=udp%3A%2F%2Ftracker.openbittorrent.com%3A80&amp;tr=udp%3A%2F%2Fopen.demonii.com%3A1337&amp;tr=udp%3A%2F%2Ftracker.coppersurfer.tk%3A6969&amp;tr=udp%3A%2F%2Fexodus.desync.com%3A6969","seeders":13,"leechers":4,"uploader":"ranjitheone","files":-1,"time":1342458393,"description":"\n____________________________________________________________________________________\nForget To Forget Remember To Remember ! If My Friends Remember To Forget Me,I Never\n\nForget To Remember Them ! My Enemies Are My Best Friends. Thanks.\n___________________________________________________________________________________\n\n\n\n\nUpcoming Movies :\n\n\n\nLaptop (2012) - Original DVD RIP\n\nBandor Bonti Bonti Bole Dhonti Dhukabar Motlob (1937)\n\nBook Diye Tikbi Na Re Salara (1984)\n\nSpader Tekka Baki Ache (1933)\n\nNirupai Sabjantu Asore Nemeche (1988)\n\nSob Bol Bocchon Bandh (1949)\n\nMaobadi Bhelebaba Mrito Gariyar More (1961)\n\nAmay Dhorte Parbina Sabjantu (1949)\n\nGoray Gondogol (2012)\n\nChatrak (2011)\n\nKhokababu (2012)\n\n\n\nScreens :\n\n\n &lt;a href=&quot;\nhttp://www.shotpix.com/images/49843052542737595605.png&quot; rel=&quot;nofollow&quot; target=&quot;_NEW&quot;&gt;\nhttp://www.shotpix.com/images/49843052542737595605.png&lt;/a&gt;\n &lt;a href=&quot;\nhttp://www.shotpix.com/images/72430125614514682951.png&quot; rel=&quot;nofollow&quot; target=&quot;_NEW&quot;&gt;\nhttp://www.shotpix.com/images/72430125614514682951.png&lt;/a&gt;\n &lt;a href=&quot;\nhttp://www.shotpix.com/images/11197833363705900786.png&quot; rel=&quot;nofollow&quot; target=&quot;_NEW&quot;&gt;\nhttp://www.shotpix.com/images/11197833363705900786.png&lt;/a&gt;\n &lt;a href=&quot;\nhttp://www.shotpix.com/images/65091337348655573945.jpg&quot; rel=&quot;nofollow&quot; target=&quot;_NEW&quot;&gt;\nhttp://www.shotpix.com/images/65091337348655573945.jpg&lt;/a&gt;\n &lt;a href=&quot;\nhttp://www.shotpix.com/images/95745002083358163436.jpeg&quot; rel=&quot;nofollow&quot; target=&quot;_NEW&quot;&gt;\nhttp://www.shotpix.com/images/95745002083358163436.jpeg&lt;/a&gt;\n &lt;a href=&quot;\nhttp://www.shotpix.com/images/79309385783620440133.jpg&quot; rel=&quot;nofollow&quot; target=&quot;_NEW&quot;&gt;\nhttp://www.shotpix.com/images/79309385783620440133.jpg&lt;/a&gt;\n\n\n\nExtra Screens :\n\n\n &lt;a href=&quot;\nhttp://www.shotpix.com/images/43477419818858082233.jpg&quot; rel=&quot;nofollow&quot; target=&quot;_NEW&quot;&gt;\nhttp://www.shotpix.com/images/43477419818858082233.jpg&lt;/a&gt;\n &lt;a href=&quot;\nhttp://www.shotpix.com/images/87268054326169004611.jpg&quot; rel=&quot;nofollow&quot; target=&quot;_NEW&quot;&gt;\nhttp://www.shotpix.com/images/87268054326169004611.jpg&lt;/a&gt;\n &lt;a href=&quot;\nhttp://www.shotpix.com/images/17500389535722887674.jpg&quot; rel=&quot;nofollow&quot; target=&quot;_NEW&quot;&gt;\nhttp://www.shotpix.com/images/17500389535722887674.jpg&lt;/a&gt;\n &lt;a href=&quot;\nhttp://www.shotpix.com/images/23603788300725060089.jpg&quot; rel=&quot;nofollow&quot; target=&quot;_NEW&quot;&gt;\nhttp://www.shotpix.com/images/23603788300725060089.jpg&lt;/a&gt;\n &lt;a href=&quot;\nhttp://www.shotpix.com/images/68884657766521674783.jpg&quot; rel=&quot;nofollow&quot; target=&quot;_NEW&quot;&gt;\nhttp://www.shotpix.com/images/68884657766521674783.jpg&lt;/a&gt;\n\n\n\nMedia Info :\n\n\n\nFormat                           : AVI\nFormat/Info                      : Audio Video Interleave\nFile size                        : 699 MiB\nDuration                         : 2h 7mn\nOverall bit rate                 : 769 Kbps\n\nVideo\nID                               : 0\nFormat                           : MPEG-4 Visual\nFormat settings, QPel            : No\nFormat settings, GMC             : No warppoints\nFormat settings, Matrix          : Custom\nCodec ID                         : XVID\nCodec ID/Hint                    : XviD\nDuration                         : 2h 7mn\nBit rate                         : 644 Kbps\nWidth                            : 608 pixels\nHeight                           : 272 pixels\nDisplay aspect ratio             : 2.25:1\nFrame rate                       : 29.970 fps\nColor space                      : YUV\nChroma subsampling               : 4:2:0\nBit depth                        : 8 bits\nScan type                        : Progressive\nCompression mode                 : Lossy\nBits/(Pixel*Frame)               : 0.130\nStream size                      : 585 MiB (84%)\n\nAudio\nID                               : 1\nFormat                           : MPEG Audio\nFormat version                   : Version 1\nFormat profile                   : Layer 3\nMode                             : Joint stereo\nMode extension                   : MS Stereo\nCodec ID                         : 55\nCodec ID/Hint                    : MP3\nDuration                         : 2h 7mn\nBit rate mode                    : Variable\nBit rate                         : 111 Kbps\nNominal bit rate                 : 128 Kbps\nChannel(s)                       : 2 channels\nSampling rate                    : 48.0 KHz\nCompression mode                 : Lossy\nStream size                      : 101 MiB (14%)\nAlignment                        : Aligned on interleaves\nInterleave, duration             : 24 ms (0.72 video frame)\nInterleave, preload duration     : 165 ms\n\n\n\n____________________________________________________________________________________\nForget To Forget Remember To Remember! If My Friends Remember To Forget Me,I Never\n\nForget To Remember Them ! My Enemies Are My Best Friends. Thanks.\n___________________________________________________________________________________\n\n\n\n","torrent":{"xt":"urn:btih:0cc14e222c9b6fc552ad16f4be041d72135663ef","amp;dn":"Bedroom+%282012%29+-+Bengali+-+Uncut+-+Adult+-+Orginal+DVD+RIP","amp;tr":["udp%3A%2F%2Ftracker.openbittorrent.com%3A80","udp%3A%2F%2Fopen.demonii.com%3A1337","udp%3A%2F%2Ftracker.coppersurfer.tk%3A6969","udp%3A%2F%2Fexodus.desync.com%3A6969"],"infoHash":"0cc14e222c9b6fc552ad16f4be041d72135663ef","infoHashBuffer":{"type":"Buffer","data":[12,193,78,34,44,155,111,197,82,173,22,244,190,4,29,114,19,86,99,239]},"announce":[],"urlList":[]}}